<svg width="450" height="516" viewBox="0 0 450 516" fill="none" xmlns="http://www.w3.org/2000/svg">
<g clip-path="url(#clip0_1409_50)">
<path d="M382.31 103.3C354.55 85.2 334.52 56.23 328.27 22.48C326.92 15.19 326.17 7.68 326.17 0H237.57L237.42 355.09C235.94 394.86 203.21 426.77 163.09 426.77C150.62 426.77 138.88 423.66 128.54 418.21C104.83 405.74 88.6 380.89 88.6 352.3C88.6 311.23 122.02 277.81 163.08 277.81C170.75 277.81 178.1 279.08 185.05 281.25V190.8C177.85 189.81 170.54 189.21 163.08 189.21C73.16 189.21 0 262.36 0 352.3C0 407.47 27.56 456.3 69.63 485.82C96.11 504.43 128.34 515.38 163.09 515.38C253.02 515.38 326.17 442.22 326.17 352.3V172.23C360.92 197.17 403.5 211.87 449.45 211.87V123.26C424.7 123.26 401.65 115.91 382.31 103.3Z" fill="white"/>
</g>
<defs>
<clipPath id="clip0_1409_50">
<rect width="449.45" height="515.38" fill="white"/>
</clipPath>
</defs>
</svg>
